<?xml version="1.0" encoding="utf-8"?>
<!-- Generator: Adobe Illustrator 16.0.0, SVG Export Plug-In . SVG Version: 6.00 Build 0)  -->
<!DOCTYPE svg PUBLIC "-//W3C//DTD SVG 1.1//EN" "http://www.w3.org/Graphics/SVG/1.1/DTD/svg11.dtd">
<svg version="1.1" id="Layer_1" xmlns="http://www.w3.org/2000/svg" xmlns:xlink="http://www.w3.org/1999/xlink" x="0px" y="0px"
	 width="12.624px" height="20px" viewBox="0 0 12.624 20" enable-background="new 0 0 12.624 20" xml:space="preserve">
<path fill="#A4A3A3" d="M8.005,10.227l4.561,7.676c0.245,0.914-0.297,1.853-1.211,2.098H1.27c-0.914-0.245-1.456-1.184-1.211-2.098
	l3.95-7.689l0.009-4.499H3.742c-0.473,0-0.857-0.383-0.857-0.856c0-0.473,0.384-0.856,0.857-0.856h4.569
	c0.473,0,0.856,0.384,0.856,0.856c0,0.473-0.383,0.856-0.856,0.856H7.996l0.008,4.498L8.005,10.227z M7.455,5.144h0.856
	c0.158,0,0.286-0.128,0.286-0.286S8.469,4.573,8.311,4.573H7.455H4.598H3.742c-0.158,0-0.286,0.127-0.286,0.285
	s0.128,0.286,0.286,0.286h0.856l-0.013,5.092l-3.971,7.783c-0.164,0.609,0.198,1.235,0.807,1.398l9.779,0.011
	c0.609-0.163,0.971-0.79,0.807-1.398L7.47,10.216L7.455,5.144z M11.009,18.888h-9.43c-0.305-0.082-0.485-0.395-0.403-0.7
	l2.839-5.596c0,0,0.857-1.143,2.036,0c1.215,1.215,2.167,0,2.167,0l3.196,5.596C11.495,18.493,11.313,18.806,11.009,18.888z"/>
<path fill="#A4A3A3" d="M7.158,2.572c0.315,0,0.571,0.256,0.571,0.572c0,0.316-0.256,0.572-0.571,0.572
	c-0.316,0-0.572-0.256-0.572-0.572C6.586,2.829,6.842,2.572,7.158,2.572z"/>
<path fill="#A4A3A3" d="M7.158,0c0.474,0,0.857,0.384,0.857,0.857c0,0.474-0.384,0.857-0.857,0.857
	c-0.474,0-0.857-0.383-0.857-0.857C6.301,0.384,6.684,0,7.158,0z"/>
<path fill="#A4A3A3" d="M4.872,2.001c0.315,0,0.572,0.256,0.572,0.571c0,0.316-0.256,0.572-0.572,0.572
	C4.556,3.144,4.3,2.888,4.3,2.572C4.3,2.257,4.556,2.001,4.872,2.001z"/>
</svg>
