<?xml version="1.0" encoding="utf-8"?>
<!-- Generator: Adobe Illustrator 16.0.0, SVG Export Plug-In . SVG Version: 6.00 Build 0)  -->
<!DOCTYPE svg PUBLIC "-//W3C//DTD SVG 1.1//EN" "http://www.w3.org/Graphics/SVG/1.1/DTD/svg11.dtd">
<svg version="1.1" id="Layer_1" xmlns="http://www.w3.org/2000/svg" xmlns:xlink="http://www.w3.org/1999/xlink" x="0px" y="0px"
	 width="20.125px" height="20.125px" viewBox="0 0 20.125 20.125" enable-background="new 0 0 20.125 20.125" xml:space="preserve">
<path fill-rule="evenodd" clip-rule="evenodd" fill="#FFFFFF" d="M17.238,14.605l-6.18-10.719c-0.516-0.516-1.352-0.585-1.867-0.069
	l-6.18,10.824c-0.516,0.515-0.516,1.108,0,2.108h14.227C17.754,15.75,17.754,15.121,17.238,14.605z M9.25,6.826
	c0-0.509,0.492-0.921,1-0.921s1,0.412,1,0.921v4.295c0,0.509-0.492,0.922-1,0.922s-1-0.413-1-0.922V6.826z M10.313,15.117
	c-0.509,0-0.92-0.412-0.92-0.922c0-0.509,0.411-0.92,0.92-0.92c0.508,0,0.92,0.411,0.92,0.92
	C11.233,14.705,10.821,15.117,10.313,15.117z"/>
</svg>
